<?xml version="1.0" standalone="no"?>
<!DOCTYPE svg PUBLIC "-//W3C//DTD SVG 20010904//EN"
 "http://www.w3.org/TR/2001/REC-SVG-20010904/DTD/svg10.dtd">
<svg version="1.0" xmlns="http://www.w3.org/2000/svg"
 width="736.000000pt" height="736.000000pt" viewBox="0 0 736.000000 736.000000"
 preserveAspectRatio="xMidYMid meet">

<g transform="translate(0.000000,736.000000) scale(0.100000,-0.100000)"
fill="#000000" stroke="none">
<path d="M0 3881 l0 -3479 77 5 c43 3 83 9 89 14 6 5 66 13 135 19 169 14 188
16 234 28 22 6 107 10 188 9 118 -1 150 2 157 13 9 14 148 22 343 19 32 0 65
5 73 12 9 8 78 15 187 21 332 16 357 19 357 34 0 12 13 15 58 13 54 -1 181 13
237 27 36 9 85 119 89 199 1 6 11 23 23 39 17 21 27 26 43 21 15 -5 29 0 46
16 23 22 34 24 132 24 78 0 118 -5 147 -17 22 -9 52 -19 67 -22 15 -3 43 -22
64 -41 20 -19 41 -35 45 -35 5 0 9 -7 9 -15 0 -8 4 -15 9 -15 5 0 13 -9 16
-21 9 -27 38 -56 61 -61 22 -4 31 -28 10 -28 -20 0 -20 -3 4 -42 15 -26 20
-51 20 -111 0 -43 5 -88 11 -99 8 -15 8 -22 -1 -28 -9 -6 -11 -24 -5 -65 4
-32 9 -64 12 -71 3 -8 -2 -11 -16 -7 -32 8 -45 -58 -30 -157 l11 -80 44 0 c37
0 44 3 44 20 0 11 -7 20 -15 20 -8 0 -15 9 -15 20 0 11 7 20 15 20 13 0 16 17
15 107 -1 60 0 122 1 138 0 17 -1 62 -4 100 -2 39 0 91 5 117 6 31 6 53 -1 65
-9 16 -11 14 -17 -14 -3 -18 -10 -33 -14 -33 -13 0 -23 74 -11 78 6 2 11 30
11 67 0 41 7 78 20 106 11 26 20 66 20 97 0 45 3 52 20 52 14 0 20 7 20 23 1
21 1 21 12 3 10 -18 11 -18 24 5 7 13 13 35 14 48 0 13 11 36 25 53 18 21 23
36 19 54 -4 14 -2 24 5 24 6 0 11 -11 11 -25 0 -14 4 -25 8 -25 26 0 104 129
80 132 -7 0 -18 2 -24 2 -13 2 -40 28 -42 41 -1 14 -32 19 -32 6 0 -18 -19
-13 -54 14 -18 14 -44 25 -58 25 -13 0 -28 3 -32 8 -4 4 -13 7 -19 7 -7 0 -13
10 -15 21 -2 14 -12 24 -31 27 -15 3 -33 17 -41 31 -9 18 -24 27 -49 31 -20 4
-45 8 -57 10 -25 5 -70 95 -60 121 4 10 4 15 0 11 -4 -4 -14 3 -22 14 -10 15
-22 19 -40 16 -27 -5 -102 21 -102 35 0 5 -8 8 -18 8 -10 0 -35 18 -56 40 -36
39 -40 40 -102 40 -50 0 -64 3 -64 15 0 20 -59 20 -107 0 -43 -18 -117 -20
-130 -2 -18 22 -24 65 -10 70 17 5 -47 37 -76 37 -36 0 -51 25 -48 76 l3 44
-56 0 c-49 0 -56 2 -56 20 0 16 -7 20 -35 20 -46 0 -104 28 -84 41 11 7 10 13
-9 31 -18 18 -24 20 -31 9 -7 -11 -15 -11 -45 0 -31 11 -36 17 -36 45 0 34
-13 44 -56 44 -17 0 -24 6 -24 19 0 11 -18 34 -40 51 -22 17 -40 38 -40 46 0
22 -53 17 -70 -6 -10 -14 -26 -20 -52 -20 -21 0 -38 -3 -38 -7 0 -10 -62 -47
-72 -45 -5 1 -8 -3 -8 -9 0 -5 -4 -7 -10 -4 -5 3 -20 -1 -32 -9 -29 -20 -38
-20 -38 1 0 15 -2 14 -15 -3 -14 -19 -17 -16 -19 21 -1 12 -14 26 -34 35 -22
11 -40 30 -52 58 -10 22 -28 47 -39 54 -12 7 -21 18 -21 25 0 24 -43 143 -51
143 -5 0 -9 24 -9 54 0 30 -5 58 -11 61 -6 4 -10 34 -9 68 1 34 -4 79 -12 100
-11 27 -13 53 -7 90 5 29 10 88 13 132 6 108 38 224 101 370 7 17 17 48 21 70
4 22 17 63 30 92 13 28 24 58 24 65 1 7 9 31 20 53 11 22 19 48 20 57 0 9 5
20 10 23 5 3 10 14 10 23 0 10 11 34 25 54 28 41 26 69 -8 148 -27 65 -58 290
-46 335 9 30 7 41 -10 69 -23 37 -25 84 -7 161 10 44 14 50 36 49 14 -1 29 5
33 13 13 22 167 118 212 133 22 7 51 19 65 28 14 9 72 25 130 37 113 24 158
22 304 -10 l69 -16 31 32 c61 63 303 229 333 229 6 0 18 9 28 20 10 11 27 20
37 20 19 0 112 42 188 85 25 14 52 25 61 25 9 0 22 7 29 15 7 8 18 15 25 15 7
0 35 18 61 40 27 22 54 40 60 40 7 0 19 11 28 25 9 14 25 25 35 25 10 0 24 7
31 15 7 8 17 15 23 15 22 0 80 55 113 105 18 29 38 55 45 57 6 2 12 26 14 53
2 28 9 105 16 173 14 129 13 137 -35 397 -8 44 -17 118 -20 165 -10 140 -16
189 -30 228 -8 20 -17 76 -20 123 -3 47 -15 111 -25 142 -11 32 -22 83 -25
115 -3 31 -13 130 -23 220 l-17 162 -1428 0 -1428 0 0 -3479z m2240 -2133 c0
-4 -4 -8 -9 -8 -6 0 -12 4 -15 8 -3 5 1 9 9 9 8 0 15 -4 15 -9z m540 -392 c0
-3 -4 -8 -10 -11 -5 -3 -10 -1 -10 4 0 6 5 11 10 11 6 0 10 -2 10 -4z m244
-312 c3 -8 1 -25 -6 -37 -12 -22 -12 -22 -22 6 -5 15 -14 27 -19 27 -4 0 -5 5
-2 10 10 16 42 12 49 -6z m-54 -704 c0 -11 -4 -20 -9 -20 -5 0 -7 9 -4 20 3
11 7 20 9 20 2 0 4 -9 4 -20z"/>
<path d="M3906 7273 c-4 -49 -10 -108 -16 -133 -11 -52 -17 -118 -25 -249 -3
-52 -8 -98 -11 -103 -7 -11 -33 -162 -39 -223 -2 -28 -7 -188 -10 -356 -5
-232 -10 -320 -22 -365 -9 -32 -16 -88 -18 -124 -1 -36 -8 -80 -16 -99 -11
-26 -11 -35 -2 -38 8 -3 10 -15 6 -35 l-6 -30 27 17 c20 13 29 15 40 6 12 -10
75 -13 183 -9 26 1 49 -4 60 -14 19 -17 65 -24 198 -34 63 -4 85 -10 103 -27
18 -17 33 -21 73 -19 28 1 59 -3 70 -9 25 -13 82 4 122 37 16 13 35 24 43 24
7 0 20 16 28 35 8 19 21 35 29 35 18 0 44 69 50 134 3 28 11 55 19 60 8 6 18
36 22 66 8 66 113 396 132 415 7 7 28 62 45 121 17 60 35 114 39 119 12 18 41
136 56 230 3 22 19 60 34 85 15 25 36 72 45 105 10 33 22 65 26 70 4 6 15 39
24 75 9 36 20 70 25 75 4 6 11 26 15 45 4 19 15 51 25 70 10 20 21 57 25 83
l7 47 -700 0 -700 0 -6 -87z"/>
<path d="M7042 7322 c-23 -21 -42 -42 -42 -48 0 -11 -43 -66 -90 -115 -19 -21
-36 -47 -38 -60 -1 -12 -18 -46 -37 -74 -18 -28 -42 -71 -51 -96 -19 -46 -36
-69 -52 -69 -10 0 -62 -109 -62 -129 0 -6 -4 -11 -9 -11 -13 0 -121 -109 -121
-122 0 -6 -15 -29 -33 -52 -19 -23 -38 -48 -43 -58 -5 -9 -35 -44 -66 -77 -32
-34 -58 -67 -58 -74 0 -7 -23 -38 -51 -68 -28 -29 -62 -71 -76 -91 -14 -21
-32 -38 -39 -38 -13 0 -30 -37 -21 -46 3 -3 -29 -40 -70 -82 -41 -42 -99 -114
-129 -160 -30 -46 -61 -85 -69 -89 -8 -3 -15 -11 -15 -18 0 -7 -18 -33 -40
-57 -22 -23 -48 -56 -56 -71 -8 -16 -31 -49 -50 -74 -19 -24 -34 -53 -34 -64
0 -10 -4 -19 -9 -19 -6 0 -13 -21 -17 -47 -4 -26 -20 -67 -35 -92 -16 -25 -29
-50 -29 -56 0 -6 -9 -18 -20 -28 -11 -9 -20 -23 -20 -30 0 -7 -14 -24 -31 -36
-23 -17 -29 -28 -25 -45 3 -12 -1 -34 -9 -50 -22 -41 -19 -83 5 -91 11 -3 20
-14 20 -24 0 -9 6 -23 12 -29 7 -7 13 -18 13 -25 0 -15 69 -77 108 -96 15 -8
27 -22 27 -31 0 -9 14 -26 30 -38 19 -15 30 -31 30 -48 0 -14 7 -27 18 -31 36
-13 72 -45 72 -65 0 -19 39 -63 90 -100 23 -17 23 -18 5 -32 -18 -13 -16 -15
23 -40 23 -14 42 -32 42 -39 0 -7 8 -20 18 -29 24 -23 54 -66 69 -98 4 -8 20
-28 35 -45 15 -16 28 -34 28 -40 0 -5 16 -30 35 -54 19 -24 35 -52 35 -62 0
-11 5 -19 10 -19 6 0 10 -8 10 -19 0 -10 9 -30 20 -44 11 -14 20 -30 20 -36 0
-5 8 -14 17 -20 14 -7 15 -12 4 -25 -11 -13 -10 -20 7 -43 10 -15 27 -54 37
-85 10 -31 26 -65 36 -74 11 -9 19 -25 19 -35 0 -10 11 -29 23 -41 19 -19 21
-27 13 -40 -8 -13 -5 -24 12 -47 13 -18 23 -47 24 -72 1 -31 7 -44 26 -57 19
-12 23 -21 18 -45 -3 -16 -1 -37 5 -48 5 -11 11 -47 13 -79 2 -46 8 -66 25
-84 18 -20 24 -40 28 -105 4 -59 3 -81 -6 -81 -13 0 -5 -71 9 -80 4 -3 15 -22
23 -42 9 -21 21 -38 26 -38 6 0 0 -15 -13 -34 -16 -24 -25 -56 -30 -107 -3
-40 -11 -78 -16 -84 -7 -9 -5 -16 5 -25 19 -16 16 -70 -3 -70 -11 0 -13 -9 -8
-35 5 -27 3 -37 -8 -41 -11 -4 -13 -11 -6 -25 6 -10 14 -28 20 -38 7 -14 5
-21 -7 -25 -12 -5 -14 -16 -11 -51 3 -25 2 -45 -2 -45 -16 0 -20 -34 -9 -67
10 -31 9 -36 -10 -49 -16 -12 -21 -26 -21 -62 0 -35 -5 -52 -20 -65 -11 -9
-20 -26 -20 -37 0 -11 -4 -20 -9 -20 -5 0 -12 -8 -15 -17 -15 -40 -32 -63 -48
-69 -19 -6 -25 -44 -8 -44 11 0 9 -28 -3 -47 -4 -6 -5 -17 -2 -25 8 -22 -11
-40 -43 -43 -34 -2 -65 -22 -57 -36 3 -4 -7 -16 -22 -26 -36 -22 -43 -33 -43
-61 0 -16 -5 -22 -17 -20 -12 2 -18 -4 -18 -17 0 -15 -15 -26 -61 -44 -49 -19
-65 -30 -78 -57 -8 -19 -22 -34 -31 -34 -8 0 -15 -5 -15 -11 0 -8 -6 -7 -17 2
-15 12 -16 12 -10 -5 8 -21 -9 -47 -27 -40 -7 3 -24 -9 -39 -26 -15 -17 -32
-28 -38 -25 -22 14 -229 -68 -229 -91 0 -22 -18 -26 -56 -12 -34 12 -37 11
-55 -11 -17 -20 -24 -22 -64 -17 -37 6 -45 4 -45 -8 0 -18 -25 -22 -35 -6 -10
16 -58 11 -98 -10 -20 -11 -48 -20 -61 -20 -13 0 -26 -5 -28 -12 -3 -8 -28 -9
-98 -1 l-93 11 -34 -36 c-32 -33 -41 -61 -26 -76 4 -4 9 -28 10 -53 2 -26 6
-49 9 -52 3 -3 60 -7 127 -9 267 -7 667 59 667 111 0 13 8 17 33 17 17 0 57 9
87 21 35 13 69 19 95 16 22 -2 90 4 150 15 205 34 230 38 370 49 77 6 142 12
145 14 3 2 44 5 90 6 47 1 92 5 100 9 8 4 51 10 95 13 44 3 114 11 155 16 124
16 162 20 223 20 l57 1 0 1344 0 1344 -67 6 c-168 17 -173 18 -173 32 0 8 -6
14 -13 14 -7 0 -18 9 -25 20 -7 11 -21 20 -32 20 -16 0 -18 5 -14 37 2 20 11
44 19 53 20 22 19 30 -2 31 -10 1 0 5 22 8 22 4 53 3 70 -1 43 -11 93 -10 101
3 7 11 66 8 97 -5 16 -8 17 74 17 1633 l0 1641 -138 0 -138 0 -42 -38z"/>
<path d="M1580 4679 c-73 -12 -85 -16 -82 -29 1 -6 -2 -9 -8 -5 -13 8 -86 -34
-124 -72 -47 -46 -106 -181 -119 -269 -16 -119 5 -266 55 -383 11 -24 17 -50
14 -57 -3 -8 0 -14 6 -14 6 0 9 -3 6 -6 -3 -3 5 -16 18 -29 13 -13 26 -35 30
-49 3 -14 10 -26 14 -26 4 0 15 -17 24 -37 9 -21 27 -52 39 -68 96 -131 127
-176 127 -182 0 -5 9 -14 21 -21 11 -7 18 -19 15 -27 -3 -8 0 -17 6 -21 7 -5
8 -2 3 6 -5 8 -3 11 6 8 8 -2 19 -20 25 -39 7 -19 16 -34 22 -34 10 0 68 -57
107 -106 19 -23 54 -50 96 -75 10 -6 28 -19 38 -28 11 -10 25 -15 30 -11 6 3
14 -1 18 -11 5 -14 8 -15 17 -3 6 8 52 28 101 43 50 16 97 32 105 36 8 4 58
24 110 45 52 20 133 60 180 87 47 27 90 52 97 56 26 15 101 69 162 116 83 65
171 183 206 278 15 40 32 82 37 94 5 11 9 27 8 35 -3 19 11 59 19 59 9 0 7 77
-2 86 -4 4 -7 19 -7 33 0 40 -18 95 -38 117 -10 11 -17 25 -15 31 3 7 -28 46
-69 86 -86 86 -160 127 -292 158 -85 20 -91 20 -169 4 -92 -19 -97 -21 -97
-41 0 -8 -7 -14 -15 -14 -15 0 -56 -19 -65 -31 -3 -4 -21 -10 -40 -14 -19 -4
-38 -12 -42 -18 -11 -19 -49 23 -42 46 4 14 3 17 -7 12 -9 -6 -11 -4 -6 8 4
10 -3 23 -18 36 -14 10 -25 24 -25 30 0 6 -4 11 -10 11 -5 0 -10 6 -10 14 0
21 -97 100 -165 134 -91 45 -209 66 -295 51z m1070 -269 l25 -8 -25 0 c-14 0
-34 3 -45 8 l-20 9 20 -1 c11 0 31 -4 45 -8z m54 -75 c-4 -8 -11 -12 -16 -9
-6 4 -5 10 3 15 19 12 19 11 13 -6z m160 -64 c15 -17 15 -19 1 -25 -10 -3 -14
-2 -10 5 4 5 1 16 -5 24 -18 22 -6 18 14 -4z"/>
<path d="M1081 4554 c0 -11 3 -14 6 -6 3 7 2 16 -1 19 -3 4 -6 -2 -5 -13z"/>
<path d="M3080 4282 c6 -13 14 -21 18 -18 3 4 -2 14 -12 24 -18 16 -18 16 -6
-6z"/>
<path d="M3110 4243 c0 -7 4 -14 9 -17 19 -12 43 -156 36 -215 l-7 -58 39 -6
c62 -11 67 -8 36 21 -23 21 -31 40 -37 81 -10 76 -76 244 -76 194z"/>
<path d="M4011 4159 c-30 -5 -66 -16 -80 -24 -14 -7 -36 -19 -48 -24 -13 -6
-23 -15 -23 -21 0 -5 -8 -10 -18 -10 -21 0 -52 -29 -52 -48 0 -7 -6 -12 -13
-12 -19 0 -48 -34 -50 -59 -1 -11 -7 -21 -15 -21 -7 0 -11 -4 -8 -9 3 -5 -1
-12 -10 -15 -8 -3 -13 -10 -10 -15 3 -5 -3 -35 -14 -67 -26 -81 -22 -301 8
-384 34 -97 106 -219 187 -321 28 -34 55 -70 60 -79 6 -10 25 -30 43 -45 18
-15 29 -32 25 -38 -3 -7 -3 -9 1 -6 8 8 92 -72 88 -84 -1 -5 2 -6 7 -3 12 8
33 -18 23 -29 -4 -5 -1 -5 5 -1 8 4 17 -2 24 -18 6 -13 25 -30 40 -37 16 -6
29 -15 29 -20 0 -11 62 -68 74 -69 5 0 18 -7 28 -17 10 -9 18 -12 18 -7 0 5
15 10 33 9 20 0 31 -5 30 -12 -5 -21 45 -15 56 6 9 17 54 37 74 33 4 -1 7 2 7
6 0 12 180 96 202 95 10 -1 16 2 13 7 -3 5 32 29 77 55 77 43 104 60 231 151
26 19 52 32 58 29 5 -4 8 -3 7 2 -3 8 77 93 88 93 15 0 154 173 154 191 0 19
56 99 70 99 13 0 13 2 1 9 -12 8 -10 19 9 71 19 51 23 81 23 166 0 97 -3 109
-32 169 -68 138 -212 216 -401 216 -87 0 -143 -8 -185 -26 -16 -7 -45 -18 -64
-25 -38 -15 -117 -79 -113 -91 1 -5 -5 -9 -13 -9 -8 0 -15 -4 -15 -10 0 -5
-15 -10 -34 -10 -33 0 -46 13 -46 45 0 20 -44 62 -60 57 -7 -3 -10 0 -6 6 3 6
1 15 -6 21 -7 6 -26 21 -41 35 -39 34 -142 82 -205 95 -61 13 -153 13 -231 0z
m1032 -106 c3 -5 -11 -9 -31 -10 -29 -1 -33 0 -17 7 26 11 43 12 48 3z m-113
-13 c0 -5 -10 -10 -22 -9 -22 0 -22 1 -3 9 11 5 21 9 23 9 1 1 2 -3 2 -9z
m285 -40 c3 -5 -1 -10 -9 -10 -8 0 -18 5 -21 10 -3 6 1 10 9 10 8 0 18 -4 21
-10z m45 -29 c0 -5 -13 -11 -30 -13 -32 -5 -42 7 -12 15 29 8 42 7 42 -2z"/>
<path d="M3080 3970 c0 -5 5 -10 10 -10 6 0 10 5 10 10 0 6 -4 10 -10 10 -5 0
-10 -4 -10 -10z"/>
<path d="M5590 3979 c0 -4 14 -39 30 -77 27 -63 44 -169 21 -134 -6 11 -9 9
-13 -6 -4 -14 0 -22 13 -25 24 -6 26 -2 30 58 2 36 -3 60 -17 83 -46 80 -63
107 -64 101z"/>
<path d="M3166 3884 c-4 -15 -5 -29 -2 -31 9 -9 26 8 26 27 0 30 -17 32 -24 4z"/>
<path d="M3000 3890 c0 -5 5 -10 11 -10 5 0 7 5 4 10 -3 6 -8 10 -11 10 -2 0
-4 -4 -4 -10z"/>
<path d="M3585 3880 c-3 -5 1 -10 10 -10 9 0 13 5 10 10 -3 6 -8 10 -10 10 -2
0 -7 -4 -10 -10z"/>
<path d="M3460 3826 c0 -21 25 -54 34 -45 5 5 9 30 7 52 -2 28 -41 22 -41 -7z"/>
<path d="M3148 3812 c-16 -10 -28 -26 -28 -37 0 -109 -177 -356 -325 -453 -38
-25 -79 -53 -90 -62 -11 -10 -63 -40 -115 -67 -52 -28 -133 -71 -180 -95 -84
-45 -230 -92 -326 -106 -70 -10 -214 18 -294 57 -36 17 -89 55 -119 84 -29 29
-49 43 -43 32 6 -11 35 -43 64 -71 30 -28 52 -56 50 -63 -2 -6 3 -9 12 -5 12
5 15 2 10 -10 -4 -11 -1 -16 11 -16 10 0 14 5 9 13 -4 7 -3 9 2 4 5 -5 9 -12
9 -15 1 -19 39 -61 59 -66 14 -3 26 -16 30 -31 5 -20 13 -25 36 -25 17 0 30
-4 30 -8 0 -13 52 -40 93 -47 20 -4 37 -12 37 -17 0 -27 31 19 36 54 4 22 15
45 25 51 11 7 19 20 19 29 0 10 7 18 15 18 8 0 15 5 15 10 0 6 7 10 16 10 8 0
12 5 9 10 -4 6 7 13 25 16 17 4 33 11 36 15 3 5 12 9 20 9 14 0 363 168 374
180 21 23 113 79 120 75 6 -4 10 -3 10 2 0 12 68 56 93 61 38 6 71 6 114 -3
37 -6 44 -5 50 11 3 11 11 22 16 25 5 4 13 25 17 48 6 33 4 44 -9 51 -44 26
-44 26 -7 65 21 21 35 44 32 52 -3 8 -1 11 4 8 6 -3 10 0 10 8 0 8 7 20 15 27
8 7 15 20 15 30 0 10 7 20 15 24 8 3 15 12 15 19 0 7 11 35 24 60 16 33 19 47
10 47 -7 0 -18 2 -26 4 -7 2 -25 -3 -40 -12z"/>
<path d="M5690 3775 c0 -8 5 -15 10 -15 6 0 10 7 10 15 0 8 -4 15 -10 15 -5 0
-10 -7 -10 -15z"/>
<path d="M5642 3693 c-1 -14 3 -21 11 -17 16 6 61 -41 53 -54 -3 -6 -19 -13
-35 -17 -33 -7 -47 -20 -53 -50 -2 -11 -9 -21 -16 -21 -6 -1 -17 -2 -23 -3 -5
0 -7 -6 -4 -12 4 -6 14 -8 22 -5 12 5 14 -1 8 -36 -26 -171 -277 -454 -549
-620 -6 -4 -43 -25 -83 -48 -39 -22 -78 -46 -85 -53 -8 -6 -29 -20 -48 -31
-140 -76 -173 -96 -163 -96 25 0 204 92 243 124 8 7 29 20 45 28 84 42 121 65
133 80 6 9 26 19 42 23 17 4 30 11 30 16 0 5 6 9 13 9 20 0 78 46 69 55 -4 5
-1 5 6 1 15 -9 45 12 36 25 -3 5 6 14 20 21 14 6 26 14 26 18 0 4 9 10 21 13
11 3 23 15 26 26 3 12 10 20 17 19 18 -3 121 98 107 106 -8 5 1 18 25 40 26
24 37 41 38 64 1 19 5 27 10 22 13 -13 46 18 46 42 0 10 4 18 9 18 5 0 17 21
27 48 10 26 24 53 31 60 19 19 54 103 47 113 -3 5 0 9 6 9 7 0 10 6 7 14 -3 8
-2 16 2 18 5 2 11 14 15 28 l7 25 -21 -27 c-29 -37 -40 -35 -40 6 0 32 -2 34
-38 38 -33 3 -38 0 -40 -19z"/>
<path d="M1396 3455 c4 -8 11 -15 16 -15 6 0 5 6 -2 15 -7 8 -14 15 -16 15 -2
0 -1 -7 2 -15z"/>
<path d="M1439 3402 c5 -10 18 -25 28 -33 12 -10 11 -5 -6 19 -24 35 -38 43
-22 14z"/>
<path d="M1490 3330 c0 -5 3 -10 8 -10 4 0 22 -23 41 -50 19 -28 36 -48 39
-46 4 4 -77 116 -84 116 -2 0 -4 -4 -4 -10z"/>
<path d="M1596 3197 c3 -10 9 -15 12 -12 3 3 0 11 -7 18 -10 9 -11 8 -5 -6z"/>
<path d="M2760 2621 c0 -17 51 -34 63 -22 14 14 7 19 -31 27 -21 4 -32 3 -32
-5z"/>
<path d="M3230 2498 c0 -23 3 -29 11 -21 7 7 28 6 72 -3 83 -18 181 -18 196 0
17 20 -9 28 -114 33 -120 5 -132 7 -141 16 -15 15 -24 6 -24 -25z"/>
<path d="M3000 2379 c0 -5 5 -7 10 -4 6 3 10 8 10 11 0 2 -4 4 -10 4 -5 0 -10
-5 -10 -11z"/>
<path d="M4196 1132 c-2 -4 2 -16 10 -27 12 -16 25 -20 69 -18 36 1 57 -3 66
-13 6 -8 29 -14 50 -14 31 0 39 4 39 18 0 25 -60 45 -132 43 -33 -1 -58 3 -58
9 0 12 -37 14 -44 2z"/>
<path d="M4466 1092 c-13 -21 14 -42 55 -42 22 0 39 5 39 10 0 6 -18 10 -39
10 -30 0 -40 4 -43 18 -3 13 -5 14 -12 4z"/>
<path d="M4435 1050 c-3 -5 -1 -10 4 -10 6 0 11 5 11 10 0 6 -2 10 -4 10 -3 0
-8 -4 -11 -10z"/>
</g>
</svg>
